<?xml version="1.0" encoding="UTF-8"?>
<svg xmlns="http://www.w3.org/2000/svg" version="1.1" viewBox="0 0 512 512">
  <defs>
    <style>
      .cls-1 {
        fill: #fff;
      }
    </style>
  </defs>
  <!-- Generator: Adobe Illustrator 28.7.1, SVG Export Plug-In . SVG Version: 1.2.0 Build 142)  -->
  <g>
    <g id="Layer_1">
      <g id="_6-Check">
        <path class="cls-1" d="M236.3,453.8c-2.7,0-5.4-1.1-7.2-3.2L34.1,239.7c-3.7-4-3.4-10.2.5-13.9,1.8-1.7,4.2-2.6,6.7-2.6h93.8c2.9,0,5.6,1.2,7.4,3.4l65.2,75c7-15.1,20.7-40.1,44.6-70.6,35.4-45.1,101.1-111.5,213.7-171.5,4.8-2.6,10.8-.7,13.3,4.1,2.2,4.2,1.1,9.5-2.6,12.4-.4.3-43.8,34.5-93.7,97.1-46,57.6-107,151.8-137.1,273.3-1.1,4.4-5,7.5-9.6,7.5h0Z"/>
      </g>
    </g>
  </g>
</svg>