<?xml version="1.0" encoding="UTF-8"?><svg id="Layer_1" xmlns="http://www.w3.org/2000/svg" viewBox="0 0 90.47 96.83"><defs><style>.cls-1{fill:#999;}</style></defs><path class="cls-1" d="M46.4,34.41h16.33c1.29,0,2.33-1.04,2.33-2.33v-9.33c0-1.29-1.04-2.33-2.33-2.33h-16.33c-1.29,0-2.33,1.04-2.33,2.33v9.33c0,1.29,1.04,2.33,2.33,2.33ZM46.4,22.74h16.33v9.33h-16.33v-9.33Z"/><path class="cls-1" d="M76.73,41.41h-5.83V15.74c0-1.29-1.04-2.33-2.33-2.33h-29.16c-3.22,0-5.83,2.61-5.83,5.83v22.16h-5.62l-1.03-5.33c-.32-1.65-1.76-2.84-3.44-2.84h-.62c-.49-1.39-1.81-2.33-3.29-2.33h-5.83c-1.93,0-3.5,1.57-3.5,3.5s1.57,3.5,3.5,3.5h5.83c1.48,0,2.79-.94,3.29-2.33h.62c.56,0,1.04.4,1.15.95l6.26,32.38c.31,1.6,1.69,2.77,3.32,2.83-2.59,2.87-2.36,7.3.51,9.89,2.87,2.59,7.3,2.36,9.89-.51,2.4-2.66,2.41-6.7,0-9.37h12.93c-2.59,2.87-2.35,7.3.52,9.88,2.87,2.59,7.3,2.35,9.88-.52,2.4-2.66,2.4-6.7,0-9.36h2.96c.64,0,1.17-.52,1.17-1.17s-.52-1.17-1.17-1.17h-36.57c-.56,0-1.04-.4-1.15-.95l-.27-1.39h38.22c1.55,0,2.91-1.02,3.36-2.5l5.6-18.67c.55-1.85-.5-3.8-2.35-4.35-.33-.1-.66-.15-1-.15h0ZM19.57,35.57h-5.83c-.64,0-1.17-.52-1.17-1.17s.52-1.17,1.17-1.17h5.83c.64,0,1.17.52,1.17,1.17s-.52,1.17-1.17,1.17ZM44.07,76.4c0,2.58-2.09,4.67-4.67,4.67s-4.67-2.09-4.67-4.67,2.09-4.67,4.67-4.67,4.67,2.09,4.67,4.67ZM67.4,76.4c0,2.58-2.09,4.67-4.67,4.67s-4.67-2.09-4.67-4.67,2.09-4.67,4.67-4.67c2.58,0,4.67,2.09,4.67,4.67ZM64.34,57.74h-9.78v-5.83h10.94l-1.17,5.83ZM67.89,51.9h7.96l-1.75,5.83h-7.38l1.17-5.83ZM29.98,51.9h8.94l1.17,5.83h-8.97l-1.13-5.83ZM41.29,51.9h10.94v5.83h-9.78l-1.17-5.83ZM52.23,43.74v5.83h-11.41l-1.17-5.83h12.58ZM52.23,60.07v4.67h-8.38l-.93-4.67h9.31ZM54.57,60.07h9.31l-.93,4.67h-8.38v-4.67ZM54.57,49.57v-5.83h12.58l-1.17,5.83h-11.41ZM68.57,41.41h-28V15.74h28v25.66ZM35.9,19.24c0-1.48.94-2.79,2.33-3.29v25.45h-2.33v-22.16ZM37.28,43.74l1.17,5.83h-8.92l-1.13-5.83h8.88ZM31.56,60.07h8.98l.93,4.67h-9.02l-.9-4.67ZM71.13,64.74h-5.81l.93-4.67h7.14l-1.15,3.82c-.15.5-.6.84-1.12.84ZM77.85,45.24l-1.3,4.34h-8.19l1.17-5.83h7.21c.64,0,1.17.52,1.17,1.16,0,.11-.02.23-.05.33h0Z"/></svg>