<?xml version="1.0" encoding="UTF-8"?><svg id="Layer_1" xmlns="http://www.w3.org/2000/svg" viewBox="0 0 90.47 96.83"><defs><style>.cls-1{fill:#999;}</style></defs><path class="cls-1" d="M16.44,69.35c.44.44,1.16.45,1.61,0,0,0,0,0,0,0,1.69-1.76,4.48-1.83,6.25-.14,1.76,1.69,1.83,4.48.14,6.25-.05.05-.09.1-.14.14-.44.44-.44,1.17,0,1.61,0,0,0,0,0,0l5.88,5.88c1.72,1.71,4.5,1.71,6.21,0l9.2-9.2,34.33-34.32c1.72-1.71,1.72-4.49,0-6.21,0,0,0,0,0,0l-5.88-5.88c-.44-.44-1.17-.44-1.61,0-1.69,1.76-4.48,1.83-6.25.14-1.76-1.69-1.83-4.48-.14-6.25.05-.05.09-.1.14-.14.44-.45.44-1.17,0-1.61l-5.88-5.88c-1.72-1.72-4.5-1.72-6.21,0,0,0,0,0,0,0L10.56,57.27c-1.71,1.72-1.71,4.49,0,6.21l5.88,5.88ZM12.17,58.88l8.4-8.39.81.81c.44.44,1.17.44,1.61,0,.44-.44.44-1.17,0-1.61l-.81-.81,23.51-23.51.8.81c.44.44,1.17.44,1.61,0,.44-.44.44-1.17,0-1.61h0l-.81-.81,8.39-8.39c.84-.8,2.16-.8,2.99,0l5.14,5.14c-2.13,3.02-1.41,7.2,1.61,9.33,2.32,1.63,5.41,1.63,7.72,0l5.14,5.14c.83.82.83,2.16,0,2.99,0,0,0,0,0,0l-8.39,8.4-.81-.81c-.46-.42-1.18-.39-1.61.07-.4.43-.4,1.1,0,1.53l.8.8-23.51,23.51-.8-.8c-.44-.44-1.17-.45-1.61,0-.44.44-.45,1.17,0,1.61h0l.81.81-8.39,8.4c-.83.83-2.17.83-2.99,0l-5.14-5.14c2.13-3.02,1.41-7.2-1.62-9.33-2.31-1.63-5.4-1.63-7.71,0l-5.14-5.14c-.82-.83-.82-2.16,0-2.99h0Z"/><path class="cls-1" d="M33.37,63.28c.44.44,1.17.44,1.61,0s.44-1.17,0-1.61l-3-3c-.44-.44-1.17-.44-1.61,0s-.44,1.17,0,1.61l3,3Z"/><path class="cls-1" d="M27.37,57.28c.45.44,1.17.42,1.61-.03.43-.44.43-1.14,0-1.58l-3-3c-.44-.44-1.17-.44-1.61,0-.44.44-.44,1.17,0,1.61h0l3,3Z"/><path class="cls-1" d="M39.37,69.28c.44.44,1.17.44,1.61,0s.44-1.17,0-1.61l-3-3c-.45-.44-1.17-.42-1.61.03-.43.44-.43,1.14,0,1.58l3,3Z"/><path class="cls-1" d="M58.49,38.15c.45.44,1.17.42,1.61-.03.43-.44.43-1.14,0-1.58l-3-3c-.44-.44-1.17-.44-1.61,0s-.44,1.17,0,1.61l3,3Z"/><path class="cls-1" d="M64.49,44.15c.44.44,1.17.44,1.61,0s.44-1.17,0-1.61l-3-3c-.44-.44-1.17-.44-1.61,0s-.44,1.17,0,1.61l3,3Z"/><path class="cls-1" d="M52.49,32.16c.44.44,1.17.44,1.61,0s.44-1.17,0-1.61l-3-3c-.44-.45-1.16-.46-1.61-.03-.45.44-.46,1.16-.03,1.61,0,0,.02.02.03.03l3,3Z"/><path class="cls-1" d="M39.9,55.59l2.58-.41c.33-.05.66.11.81.41l1.18,2.32c.51,1.03,1.55,1.67,2.7,1.67.17,0,.34-.01.5-.04,1.31-.19,2.34-1.22,2.54-2.54l.41-2.58c.05-.33.31-.59.64-.64l2.58-.41c1.67-.26,2.8-1.83,2.54-3.49-.15-.97-.76-1.8-1.63-2.24l-2.32-1.18c-.3-.15-.47-.48-.41-.81l.41-2.58c.26-1.67-.87-3.23-2.54-3.49-.97-.15-1.95.17-2.64.86l-1.84,1.84c-.24.24-.6.3-.9.14l-2.32-1.18c-1.5-.77-3.34-.17-4.11,1.33-.44.87-.44,1.9,0,2.77l1.18,2.32c.15.3.1.66-.14.9l-1.84,1.84c-1.19,1.19-1.19,3.13,0,4.32.69.69,1.67,1.01,2.63.86h0ZM38.87,52.03l1.84-1.84c.94-.93,1.16-2.37.56-3.55l-1.19-2.33c-.19-.38-.04-.85.35-1.04.22-.11.48-.11.7,0l2.32,1.18c1.18.6,2.61.38,3.55-.56l1.84-1.84c.3-.3.79-.3,1.1,0,.18.18.26.43.22.67l-.41,2.58c-.21,1.31.45,2.6,1.63,3.2l2.32,1.18c.38.19.53.66.34,1.04-.11.22-.32.38-.57.41l-2.58.41c-1.31.21-2.33,1.23-2.54,2.54l-.41,2.58c-.07.42-.47.71-.89.64-.24-.04-.46-.19-.57-.41l-1.18-2.32c-.52-1.02-1.57-1.67-2.72-1.67-1.03.09-2.05.24-3.06.45-.42.07-.82-.22-.89-.65-.04-.24.04-.49.22-.67h0Z"/></svg>