<?xml version="1.0" encoding="UTF-8"?><svg id="Layer_1" xmlns="http://www.w3.org/2000/svg" viewBox="0 0 90.47 96.83"><defs><style>.cls-1{fill:#999;}</style></defs><path class="cls-1" d="M16.06,69.66c0,.41.25.78.63.93l19.62,7.75c.2.08.42.09.63.03l21.35-5.84,14.74,5.8c.51.2,1.09-.05,1.3-.56.05-.12.07-.24.07-.36v-32.28c0-.41-.25-.78-.63-.93l-15.05-5.94c-.12-.04-.24-.06-.36-.06h-.01s-.03,0-.04,0c-.07,0-.14,0-.21.02l-1.12.31c1.41-2.51,2.38-4.97,2.38-6.98,0-7.26-5.89-13.15-13.15-13.15s-13.15,5.89-13.15,13.15c0,3.36,2.73,8.01,5.63,11.99l-1.94.53-19.31-7.64c-.51-.2-1.09.05-1.3.56-.05.12-.07.24-.07.37v32.29ZM46.21,28.11c1.91,0,3.45,1.54,3.45,3.45s-1.54,3.45-3.45,3.45-3.45-1.54-3.45-3.45c0-1.9,1.55-3.45,3.45-3.45ZM18.06,38.85l17.62,6.97v2.57c0,.55.45,1,1,1s1-.45,1-1v-2.48l2.29-.63c2.73,3.54,5.28,6.25,5.51,6.48.38.4,1.01.42,1.41.04.01-.01.02-.02.04-.04,3.13-3.34,5.99-6.92,8.54-10.72l1.88-.52v1.2c0,.55.45,1,1,1s1-.45,1-1v-1.05l13.06,5.15v30.13l-13.06-5.14v-1.94c0-.55-.45-1-1-1s-1,.45-1,1v1.86l-19.67,5.38v-1.88c0-.55-.45-1-1-1s-1,.45-1,1v1.72l-17.62-6.96v-30.14Z"/><path class="cls-1" d="M36.68,56.66c.55,0,1-.45,1-1v-3.25c0-.55-.45-1-1-1s-1,.45-1,1v3.25c0,.55.45,1,1,1Z"/><path class="cls-1" d="M36.68,63.93c.55,0,1-.45,1-1v-3.25c0-.55-.45-1-1-1s-1,.45-1,1v3.25c0,.55.45,1,1,1Z"/><path class="cls-1" d="M36.68,71.2c.55,0,1-.45,1-1v-3.25c0-.55-.45-1-1-1s-1,.45-1,1v3.25c0,.55.45,1,1,1Z"/><path class="cls-1" d="M58.35,48.64c.55,0,1-.45,1-1v-2.51c0-.55-.45-1-1-1s-1,.45-1,1v2.51c0,.55.45,1,1,1Z"/><path class="cls-1" d="M58.35,54.58c.55,0,1-.45,1-1v-2.51c0-.55-.45-1-1-1s-1,.45-1,1v2.51c0,.55.45,1,1,1Z"/><path class="cls-1" d="M58.35,60.51c.55,0,1-.45,1-1v-2.51c0-.55-.45-1-1-1s-1,.45-1,1v2.51c0,.55.45,1,1,1Z"/><path class="cls-1" d="M58.35,66.44c.55,0,1-.45,1-1v-2.51c0-.55-.45-1-1-1s-1,.45-1,1v2.51c0,.55.45,1,1,1Z"/></svg>