<?xml version="1.0" encoding="UTF-8"?>
<svg xmlns="http://www.w3.org/2000/svg" version="1.1" viewBox="0 0 512 512">
  <defs>
    <style>
      .cls-1 {
        fill: #fff;
      }
    </style>
  </defs>
  <!-- Generator: Adobe Illustrator 28.6.0, SVG Export Plug-In . SVG Version: 1.2.0 Build 709)  -->
  <g>
    <g id="Capa_1">
      <path class="cls-1" d="M512,97.2c-19,8.4-39.3,13.9-60.5,16.6,21.8-13,38.4-33.4,46.2-58-20.3,12.1-42.7,20.6-66.6,25.4-19.3-20.5-46.7-33.2-76.7-33.2-58.1,0-104.9,47.2-104.9,105s.7,16.3,2.4,23.9c-87.3-4.3-164.5-46.1-216.4-109.8-9.1,15.7-14.4,33.7-14.4,53.1,0,36.4,18.7,68.6,46.6,87.2-16.9-.3-33.4-5.2-47.4-12.9v1.2c0,51,36.4,93.4,84.1,103.1-8.5,2.3-17.9,3.5-27.5,3.5s-13.5-.4-19.9-1.8c13.6,41.6,52.2,72.1,98.1,73.1-35.7,27.9-81.1,44.8-130.1,44.8S8.3,418,0,416.9c46.5,30,101.6,47.1,161,47.1,193.2,0,298.8-160,298.8-298.7s-.2-9.1-.4-13.6c20.8-14.8,38.3-33.2,52.6-54.5Z"/>
      <path d="M387.7,74.3l41.4-12.9-5.7-3.6-36,11.2-1.5-34.6-19.2-12,2.2,52.3-43.5,13.5,5.7,3.6,38-11.8,1.6,36.6,19.2,12-2.3-54.3h0ZM374.2,78.5l-.3-5.2-2.1-41.7,8.7,5.5,1.7,33.6.3,5.2,2.2,43.7-8.7-5.5-1.8-35.7h0Z"/>
    </g>
  </g>
</svg>