<?xml version="1.0" encoding="UTF-8"?>
<svg xmlns="http://www.w3.org/2000/svg" version="1.1" viewBox="0 0 512 512">
  <defs>
    <style>
      .cls-1 {
        fill: #fff;
      }
    </style>
  </defs>
  <!-- Generator: Adobe Illustrator 28.6.0, SVG Export Plug-In . SVG Version: 1.2.0 Build 709)  -->
  <g>
    <g id="Layer_1">
      <g id="Capa_1">
        <path class="cls-1" d="M512,98c-18.9,8.4-39.1,13.8-60.2,16.5,21.7-12.9,38.2-33.2,45.9-57.7-20.2,12-42.5,20.5-66.2,25.3-19.2-20.4-46.4-33-76.3-33-57.8,0-104.3,46.9-104.3,104.4s.7,16.2,2.4,23.8c-86.8-4.3-163.6-45.8-215.2-109.2-9,15.6-14.3,33.5-14.3,52.8,0,36.2,18.6,68.2,46.3,86.7-16.8-.3-33.2-5.2-47.1-12.8v1.2c0,50.7,36.2,92.9,83.6,102.5-8.5,2.3-17.8,3.5-27.3,3.5s-13.4-.4-19.8-1.8c13.5,41.4,51.9,71.7,97.6,72.7-35.5,27.7-80.6,44.5-129.4,44.5s-16.6-.4-24.9-1.5c46.2,29.8,101,46.8,160.1,46.8,192.1,0,297.1-159.1,297.1-297s-.2-9-.4-13.5c20.7-14.7,38.1-33,52.3-54.2h0Z"/>
        <path d="M388.4,75.2l41.2-12.8-5.7-3.6-35.8,11.1-1.5-34.4-19.1-11.9,2.2,52-43.3,13.4,5.7,3.6,37.8-11.7,1.6,36.4,19.1,11.9-2.3-54h0ZM375,79.4l-.3-5.2-2.1-41.5,8.7,5.5,1.7,33.4.3,5.2,2.2,43.5-8.7-5.5-1.8-35.5h0Z"/>
      </g>
    </g>
  </g>
</svg>