<?xml version="1.0" encoding="UTF-8"?>
<svg xmlns="http://www.w3.org/2000/svg" version="1.1" viewBox="0 0 1080 1080">
  <defs>
    <style>
      .cls-1 {
        fill: #fff;
      }
    </style>
  </defs>
  <!-- Generator: Adobe Illustrator 28.7.1, SVG Export Plug-In . SVG Version: 1.2.0 Build 142)  -->
  <g>
    <g id="Layer_1">
      <g>
        <path class="cls-1" d="M1049.1,147.6c-15.9-15.9-41.7-15.9-57.6,0l-488.3,487-176.2-191.3c-15.2-16.5-41-17.6-57.5-2.4-16.5,15.2-17.6,41-2.4,57.5l204.9,222.5c7.5,8.2,18,12.9,29.1,13.1.3,0,.6,0,.9,0,10.8,0,21.1-4.3,28.7-11.9L1049,205.2c15.9-15.9,16-41.7,0-57.6Z"/>
        <path class="cls-1" d="M1039.3,499.3c-22.5,0-40.7,18.2-40.7,40.7,0,252.9-205.7,458.6-458.6,458.6S81.4,792.9,81.4,540,287.1,81.4,540,81.4s40.7-18.2,40.7-40.7S562.5,0,540,0C242.2,0,0,242.2,0,540s242.2,540,540,540,540-242.3,540-540-18.2-40.7-40.7-40.7Z"/>
      </g>
    </g>
  </g>
</svg>